{"title":"Outcast-AC3-XviD-DVDRip 2010 TBS","uid":6467356,"size":1389758133,"categoryP":"video","categoryS":"movies","magnet":"?xt=urn:btih:c36f30f99fad3c12739e03b6771ff7f7a4852f11&amp;dn=Outcast-AC3-XviD-DVDRip+2010+TBS&amp;tr=udp%3A%2F%2Ftracker.openbittorrent.com%3A80&amp;tr=udp%3A%2F%2Fopen.demonii.com%3A1337&amp;tr=udp%3A%2F%2Ftracker.coppersurfer.tk%3A6969&amp;tr=udp%3A%2F%2Fexodus.desync.com%3A6969","seeders":0,"leechers":0,"uploader":"FatFreddy30","files":-1,"time":1308008502,"description":"It tells the tale of Petronella (a Scottish/Romany girl) and Fergal (her mysterious Irish traveller boyfriend). As their doomed relationship plays out, a Beast stalks the estate, killing locals, working its way towards our protagonists. Meanwhile Cathal and Liam, two mysterious travellers from Ireland use ritual and magic on a blood hunt. Mary, Fergal's mother performs ritual and magic of her own. As Cathal comes face to face with Mary in a vicious finale we know one thing: the Beast must die...\n &lt;a href=&quot;\nhttp://www.imdb.com/title/tt1396219/&quot; rel=&quot;nofollow&quot; target=&quot;_NEW&quot;&gt;\nhttp://www.imdb.com/title/tt1396219/&lt;/a&gt;\n\nSubs: Dutch, English.\n\nPetronella is een Schotse zigeunervrouw en heeft een relatie met Fergal, een mysterieuze Ierse reiziger. Als hun verdoemde relatie bekend wordt, terroriseert een vreemd beest het landgoed. Het vermoordt de bewoners, en komt zo dichter bij Petronella en Fergal. Ondertussen zijn de mysterieuze Ierse reizigers Cathal en Liam bezig met het opvoeren van een ritueel, omdat ze jacht maken op een vampier. Ook Mary (Fergal's moeder) voert een ritueel op en is bezig met magie. Maar dan komen Cathal en Mary tegenover elkaar te staan...\n &lt;a href=&quot;\nhttp://www.moviemeter.nl/film/61942&quot; rel=&quot;nofollow&quot; target=&quot;_NEW&quot;&gt;\nhttp://www.moviemeter.nl/film/61942&lt;/a&gt;\n\nSubs: Engels, Nederlands.\n\nGeneral\nComplete name                    : Outcast-AC3-XviD-DVDRip 2010 TBS\\Outcast-AC3-XviD-DVDRip 2010.avi\nFormat                           : AVI\nFormat/Info                      : Audio Video Interleave\nFile size                        : 1.29 GiB\nDuration                         : 1h 33mn\nOverall bit rate                 : 1 976 Kbps\nWriting application              : VirtualDubMod 1.5.4.1 (build 2178/release)\nWriting library                  : VirtualDubMod build 2178/release\n\nVideo\nID                               : 0\nFormat                           : MPEG-4 Visual\nFormat profile                   : Simple@L3\nFormat settings, BVOP            : No\nFormat settings, QPel            : No\nFormat settings, GMC             : No warppoints\nFormat settings, Matrix          : Default (H.263)\nCodec ID                         : XVID\nCodec ID/Hint                    : XviD\nDuration                         : 1h 33mn\nBit rate                         : 1 518 Kbps\nWidth                            : 720 pixels\nHeight                           : 400 pixels\nDisplay aspect ratio             : 16:9\nFrame rate                       : 25.000 fps\nColor space                      : YUV\nChroma subsampling               : 4:2:0\nBit depth                        : 8 bits\nScan type                        : Progressive\nCompression mode                 : Lossy\nBits/(Pixel*Frame)               : 0.211\nStream size                      : 1 018 MiB (77%)\nWriting library                  : XviD 1.1.2 (UTC 2006-11-01)\n\nAudio\nID                               : 1\nFormat                           : AC-3\nFormat/Info                      : Audio Coding 3\nMode extension                   : CM (complete main)\nCodec ID                         : 2000\nDuration                         : 1h 33mn\nBit rate mode                    : Constant\nBit rate                         : 448 Kbps\nChannel(s)                       : 6 channels\nChannel positions                : Front: L C R, Side: L R, LFE\nSampling rate                    : 48.0 KHz\nBit depth                        : 16 bits\nCompression mode                 : Lossy\nStream size                      : 300 MiB (23%)\nAlignment                        : Split accross interleaves\nInterleave, duration             : 40 ms (1.00 video frame)\nInterleave, preload duration     : 500 ms\n\nEnjoy..\n\nTBS.\n\nThanks to Simply ReleaseS Toppers.","torrent":{"xt":"urn:btih:c36f30f99fad3c12739e03b6771ff7f7a4852f11","amp;dn":"Outcast-AC3-XviD-DVDRip+2010+TBS","amp;tr":["udp%3A%2F%2Ftracker.openbittorrent.com%3A80","udp%3A%2F%2Fopen.demonii.com%3A1337","udp%3A%2F%2Ftracker.coppersurfer.tk%3A6969","udp%3A%2F%2Fexodus.desync.com%3A6969"],"infoHash":"c36f30f99fad3c12739e03b6771ff7f7a4852f11","infoHashBuffer":{"type":"Buffer","data":[195,111,48,249,159,173,60,18,115,158,3,182,119,31,247,247,164,133,47,17]},"announce":[],"urlList":[]}}